<svg width="19" height="19" viewBox="0 0 19 19" fill="none" xmlns="http://www.w3.org/2000/svg">
<path d="M5.74124 19C5.2848 19 4.9001 18.8523 4.58715 18.557C4.2742 18.2617 4.11809 17.8991 4.11881 17.4691C4.11953 17.039 4.27564 16.676 4.58715 16.3801C4.9001 16.0854 5.2848 15.9381 5.74124 15.9381C6.19768 15.9381 6.58202 16.0854 6.89425 16.3801C7.20647 16.6747 7.36295 17.0377 7.36367 17.4691C7.36439 17.9004 7.20792 18.2631 6.89425 18.557C6.58058 18.851 6.19624 18.9986 5.74124 19ZM15.8912 19C15.4354 19 15.0511 18.8523 14.7382 18.557C14.4252 18.2617 14.2687 17.8991 14.2687 17.4691C14.2687 17.039 14.4252 16.676 14.7382 16.3801C15.0511 16.0854 15.4354 15.9381 15.8912 15.9381C16.3469 15.9381 16.7316 16.0854 17.0453 16.3801C17.3575 16.6754 17.5136 17.0384 17.5136 17.4691C17.5136 17.8991 17.3575 18.2617 17.0453 18.557C16.7323 18.8523 16.3476 19 15.8912 19ZM4.19777 3.06188L7.08461 8.79373H14.2612C14.3859 8.79373 14.4966 8.76413 14.5932 8.70493C14.6906 8.64574 14.7738 8.56408 14.8431 8.45998L17.6726 3.612C17.7555 3.46775 17.7624 3.34017 17.6931 3.22927C17.6232 3.11768 17.5053 3.06188 17.3395 3.06188H4.19777ZM3.66886 2.04125H17.7516C18.221 2.04125 18.5743 2.22225 18.8115 2.58423C19.0495 2.94553 19.0621 3.31806 18.8494 3.70182L15.7581 9.01724C15.6017 9.2656 15.3983 9.46054 15.1481 9.60206C14.8979 9.74359 14.6228 9.81435 14.3228 9.81435H6.59788L5.28371 12.0904C5.17267 12.2475 5.16906 12.4176 5.2729 12.6007C5.37673 12.7837 5.53285 12.8756 5.74124 12.8762H17.5136V13.8969H5.74124C5.11029 13.8969 4.63943 13.6458 4.32864 13.1436C4.01786 12.6415 4.01029 12.1373 4.30593 11.6311L5.93269 8.89579L1.95557 1.02063H0V0H2.64132L3.66886 2.04125Z" fill="#82B5D1"/>
</svg>
