<svg width="19" height="17" viewBox="0 0 19 17" fill="none" xmlns="http://www.w3.org/2000/svg">
<path d="M2.24 8.28902C1.84416 7.89473 1.53059 7.42505 1.31767 6.90748C1.10475 6.38991 0.99675 5.83486 1 5.27484C1 4.14234 1.44777 3.05623 2.2448 2.25543C3.04183 1.45463 4.12283 1.00475 5.25 1.00475C6.83 1.00475 8.21 1.86881 8.94 3.15486H10.06C10.4312 2.50091 10.9682 1.95744 11.6164 1.57977C12.2645 1.20209 13.0007 1.00368 13.75 1.00475C14.8772 1.00475 15.9582 1.45463 16.7552 2.25543C17.5522 3.05623 18 4.14234 18 5.27484C18 6.45037 17.5 7.53547 16.76 8.28902L9.5 15.5733L2.24 8.28902ZM17.46 9.00237C18.41 8.03784 19 6.73169 19 5.27484C19 3.87587 18.4469 2.5342 17.4623 1.54498C16.4777 0.555759 15.1424 2.09483e-05 13.75 2.09483e-05C12 2.09483e-05 10.45 0.854039 9.5 2.18028C9.01522 1.50347 8.37675 0.952612 7.63759 0.573425C6.89844 0.194238 6.07992 -0.00233606 5.25 2.09483e-05C3.85761 2.09483e-05 2.52226 0.555759 1.53769 1.54498C0.553124 2.5342 0 3.87587 0 5.27484C0 6.73169 0.59 8.03784 1.54 9.00237L9.5 17L17.46 9.00237Z" fill="#82B5D1"/>
</svg>
