<svg width="48.000000" height="48.000000" viewBox="0 0 48 48" fill="none" xmlns="http://www.w3.org/2000/svg" xmlns:xlink="http://www.w3.org/1999/xlink">
	<desc>
			Created with Pixso.
	</desc>
	<defs>
		<clipPath id="clip1_54">
			<rect id="ion:rocket-sharp" width="48.000000" height="48.000000" fill="white" fill-opacity="0"/>
		</clipPath>
	</defs>
	<rect id="ion:rocket-sharp" width="48.000000" height="48.000000" fill="#FFFFFF" fill-opacity="0"/>
	<g clip-path="url(#clip1_54)">
		<path id="Vector" d="M44.77 3.58C44.76 3.5 44.72 3.42 44.66 3.36C44.6 3.3 44.52 3.26 44.44 3.24C38.95 1.9 26.26 6.68 19.39 13.55C18.16 14.77 17.05 16.09 16.05 17.5C13.93 17.31 11.81 17.47 10 18.25C4.91 20.5 3.42 26.35 3.01 28.87C2.98 29.01 2.99 29.15 3.03 29.28C3.07 29.42 3.15 29.54 3.24 29.64C3.34 29.74 3.46 29.82 3.59 29.87C3.72 29.92 3.86 29.94 4 29.92L12.18 29.02C12.19 29.63 12.23 30.25 12.29 30.86C12.34 31.29 12.52 31.69 12.83 31.99L16 35.15C16.3 35.46 16.7 35.64 17.12 35.69C17.73 35.75 18.35 35.79 18.96 35.8L18.06 43.97C18.05 44.11 18.06 44.25 18.11 44.38C18.16 44.51 18.24 44.63 18.34 44.73C18.44 44.82 18.57 44.89 18.7 44.93C18.83 44.98 18.97 44.98 19.11 44.96C21.63 44.56 27.49 43.07 29.72 37.98C30.51 36.17 30.67 34.06 30.49 31.95C31.9 30.95 33.22 29.84 34.44 28.61C41.34 21.75 46.1 9.35 44.77 3.58ZM27.56 20.43C26.93 19.8 26.51 18.99 26.33 18.12C26.16 17.25 26.25 16.34 26.59 15.52C26.93 14.7 27.5 14 28.24 13.5C28.98 13.01 29.85 12.74 30.75 12.74C31.64 12.74 32.51 13.01 33.25 13.5C33.99 14 34.56 14.7 34.9 15.52C35.24 16.34 35.33 17.25 35.16 18.12C34.98 18.99 34.56 19.8 33.93 20.43C33.51 20.84 33.01 21.18 32.47 21.4C31.92 21.63 31.34 21.74 30.75 21.74C30.15 21.74 29.57 21.63 29.02 21.4C28.48 21.18 27.98 20.84 27.56 20.43Z" fill="#FFFFFF" fill-opacity="0" fill-rule="nonzero"/>
		<path id="Vector" d="M30.49 31.95C31.9 30.95 33.22 29.84 34.44 28.61C41.34 21.75 46.1 9.35 44.77 3.58C44.76 3.5 44.72 3.42 44.66 3.36C44.6 3.3 44.52 3.26 44.44 3.24C38.95 1.9 26.26 6.68 19.39 13.55C18.16 14.77 17.05 16.09 16.05 17.5C13.93 17.31 11.81 17.47 10 18.25C4.91 20.5 3.42 26.35 3.01 28.87C2.98 29.01 2.99 29.15 3.03 29.28C3.07 29.42 3.15 29.54 3.24 29.64C3.34 29.74 3.46 29.82 3.59 29.87C3.72 29.92 3.86 29.94 4 29.92L11.18 29.13L12.18 29.02C12.19 29.35 12.2 29.69 12.22 30.02C12.24 30.3 12.26 30.58 12.29 30.86C12.34 31.29 12.52 31.69 12.83 31.99L16 35.15C16.3 35.46 16.7 35.64 17.12 35.69C17.4 35.72 17.68 35.74 17.96 35.76C18.29 35.78 18.63 35.79 18.96 35.8L18.85 36.8L18.06 43.97C18.05 44.11 18.06 44.25 18.11 44.38C18.16 44.51 18.24 44.63 18.34 44.73C18.44 44.82 18.57 44.89 18.7 44.93C18.83 44.98 18.97 44.98 19.11 44.96C21.63 44.56 27.49 43.07 29.72 37.98C30.51 36.17 30.67 34.06 30.49 31.95ZM43.8 3.82Q43.8 3.82 43.8 3.81Q43.8 3.81 43.8 3.82L43.8 3.82ZM32.81 6.24Q39.96 3.38 43.87 4.14Q44.62 8.21 41.76 15.31Q38.66 23 33.73 27.91Q32.85 28.8 31.89 29.6Q30.94 30.41 29.91 31.13L29.44 31.47L29.49 32.04Q29.78 35.35 28.8 37.58Q28.37 38.57 27.73 39.42Q25.1 42.96 19.07 43.95L20.07 34.81L18.97 34.8Q18.1 34.79 17.22 34.69Q17.08 34.68 16.96 34.62Q16.82 34.56 16.7 34.44L13.53 31.28Q13.45 31.19 13.39 31.09Q13.31 30.94 13.29 30.75Q13.24 30.32 13.21 29.88Q13.19 29.44 13.18 29.01L13.17 27.9L4.01 28.91Q5.04 22.83 8.61 20.2Q9.44 19.6 10.4 19.17Q12.63 18.2 15.96 18.49L16.53 18.54L16.87 18.08Q17.52 17.16 18.23 16.29Q19.11 15.23 20.1 14.26Q24.98 9.37 32.81 6.24ZM25.27 16.7Q25.19 17.5 25.35 18.32Q25.51 19.14 25.89 19.84Q26.27 20.55 26.86 21.13Q27.24 21.52 27.69 21.82Q28.14 22.12 28.64 22.33Q29.15 22.54 29.67 22.64Q30.2 22.74 30.75 22.74Q31.29 22.74 31.82 22.64Q32.34 22.54 32.85 22.33Q33.36 22.11 33.81 21.81Q34.25 21.52 34.63 21.13Q35.22 20.54 35.6 19.84Q35.98 19.14 36.14 18.32Q36.3 17.5 36.22 16.7Q36.15 15.91 35.83 15.14Q35.51 14.37 35 13.75Q34.49 13.13 33.8 12.67Q33.11 12.21 32.34 11.97Q31.58 11.74 30.75 11.74Q29.91 11.74 29.15 11.97Q28.38 12.21 27.69 12.67Q27 13.13 26.49 13.75Q25.98 14.37 25.66 15.14Q25.34 15.91 25.27 16.7ZM27.56 20.43C26.93 19.8 26.51 18.99 26.33 18.12C26.16 17.25 26.25 16.34 26.59 15.52C26.93 14.7 27.5 14 28.24 13.5C28.98 13.01 29.85 12.74 30.75 12.74C31.64 12.74 32.51 13.01 33.25 13.5C33.99 14 34.56 14.7 34.9 15.52C35.24 16.34 35.33 17.25 35.16 18.12C34.98 18.99 34.56 19.8 33.93 20.43C33.51 20.84 33.01 21.18 32.47 21.4C31.92 21.63 31.34 21.74 30.75 21.74C30.15 21.74 29.57 21.63 29.02 21.4C28.48 21.18 27.98 20.84 27.56 20.43Z" fill="#4AD428" fill-opacity="1.000000" fill-rule="evenodd"/>
		<path id="Vector" d="M15.78 37.44C15.27 37.96 14.44 38.16 13.45 38.33C11.22 38.71 9.26 36.78 9.66 34.53C9.81 33.68 10.26 32.48 10.54 32.2C10.6 32.14 10.65 32.06 10.66 31.97C10.67 31.89 10.66 31.8 10.62 31.72C10.59 31.65 10.52 31.58 10.45 31.54C10.37 31.5 10.29 31.49 10.2 31.5C8.95 31.65 7.8 32.22 6.91 33.1C4.7 35.31 4.5 43.5 4.5 43.5C4.5 43.5 12.69 43.29 14.89 41.08C15.78 40.19 16.35 39.03 16.5 37.78C16.53 37.39 16.05 37.16 15.78 37.44Z" fill="#FFFFFF" fill-opacity="0" fill-rule="nonzero"/>
		<path id="Vector" d="M12.47 39.36Q13.04 39.41 13.62 39.31L13.62 39.31Q14.57 39.15 15.12 38.96Q15.14 38.95 15.15 38.95Q15.11 39.04 15.07 39.13Q14.91 39.46 14.7 39.76Q14.47 40.09 14.18 40.37Q13.9 40.66 13.36 40.92Q12.82 41.2 12.04 41.43Q10.68 41.85 8.73 42.13Q7.31 42.32 5.74 42.43Q5.64 42.44 5.55 42.44Q5.55 42.35 5.56 42.25Q5.67 40.68 5.86 39.27Q6.14 37.31 6.56 35.95Q6.79 35.18 7.07 34.63Q7.33 34.09 7.61 33.81Q7.89 33.54 8.2 33.32Q8.51 33.09 8.86 32.92Q8.98 32.86 9.11 32.81Q8.8 33.63 8.67 34.35Q8.56 34.97 8.63 35.57Q8.67 36.01 8.82 36.44Q8.96 36.88 9.19 37.27Q9.47 37.73 9.86 38.13Q10.24 38.5 10.69 38.77Q11.09 39.01 11.55 39.16Q12 39.31 12.47 39.36ZM9.76 31.57C9.76 31.57 9.77 31.57 9.77 31.57C9.91 31.54 10.06 31.52 10.2 31.5C10.29 31.49 10.37 31.5 10.45 31.54C10.52 31.58 10.59 31.65 10.62 31.72C10.66 31.8 10.67 31.89 10.66 31.97C10.65 32.06 10.6 32.14 10.54 32.2C10.26 32.48 9.81 33.68 9.66 34.53C9.26 36.78 11.22 38.71 13.45 38.33C14.28 38.19 14.99 38.02 15.5 37.67C15.5 37.67 15.51 37.67 15.51 37.67C15.61 37.6 15.7 37.52 15.78 37.44C16.05 37.16 16.53 37.39 16.5 37.78C16.48 37.92 16.46 38.06 16.43 38.2C16.43 38.2 16.43 38.21 16.43 38.21C16.21 39.29 15.68 40.29 14.89 41.08C13.16 42.81 7.75 43.31 5.5 43.45C4.88 43.49 4.5 43.5 4.5 43.5C4.5 43.5 4.5 43.11 4.54 42.49C4.68 40.24 5.18 34.83 6.91 33.1C7.69 32.32 8.68 31.79 9.76 31.57ZM10.32 32.49Q10.33 32.49 10.34 32.49Q10.33 32.49 10.32 32.49Z" fill="#4AD428" fill-opacity="1.000000" fill-rule="evenodd"/>
	</g>
</svg>
