<svg width="23.000000" height="23.000000" viewBox="0 0 23 23" fill="none" xmlns="http://www.w3.org/2000/svg" xmlns:xlink="http://www.w3.org/1999/xlink">
	<desc>
			Created with Pixso.
	</desc>
	<defs/>
	<mask id="mask_2_7" fill="white">
		<path id="Combined-Shape" d="M9.85291 0.543457L9.35291 0.543457L9.35291 1.04425L9.8537 1.04346L9.85291 0.543457ZM10.5746 0.543335L10.5748 0.043335L10.5746 0.543335ZM9.85291 0.540283L10.3529 0.540283L10.3529 0.0397339L9.85236 0.0402832L9.85291 0.540283ZM5.82889 0.611511L5.80655 0.112L5.80618 0.112061L5.82889 0.611511ZM3.45206 1.04822L3.63177 1.51483L3.63208 1.51471L3.45206 1.04822ZM1.98004 1.99603L1.62836 1.64056L1.62836 1.64056L1.98004 1.99603ZM1.02216 3.45251L0.556732 3.26984L0.556702 3.2699L1.02216 3.45251ZM0.58136 5.80408L0.0818787 5.78101L0.0818787 5.78113L0.58136 5.80408ZM0.58136 16.0388L0.0818787 16.0617L0.0818787 16.0618L0.58136 16.0388ZM1.02216 18.3898L0.556793 18.5726L0.556854 18.5728L1.02216 18.3898ZM1.98004 19.8455L1.62836 20.2009L1.62836 20.2009L1.98004 19.8455ZM3.45206 20.7928L3.27267 21.2595L3.27283 21.2595L3.45206 20.7928ZM5.82889 21.2295L5.80606 21.7289L5.8064 21.7289L5.82889 21.2295ZM16.1735 21.2295L16.196 21.7289L16.1961 21.7289L16.1735 21.2295ZM18.5501 20.793L18.3708 20.3263L18.3698 20.3267L18.5501 20.793ZM20.021 19.8458L19.6695 19.4902L19.6693 19.4904L20.021 19.8458ZM20.9789 18.3909L20.5135 18.208L20.5135 18.2081L20.9789 18.3909ZM21.4197 16.0398L21.9192 16.0629L21.9192 16.0627L21.4197 16.0398ZM21.4197 5.80725L21.9192 5.7843L21.9192 5.78424L21.4197 5.80725ZM20.9789 3.45624L21.4443 3.27338L21.4442 3.27319L20.9789 3.45624ZM20.021 1.99969L19.6693 2.35504L19.6693 2.3551L20.021 1.99969ZM18.5501 1.05243L18.7294 0.585693L18.7294 0.585693L18.5501 1.05243ZM16.1735 0.616272L16.1961 0.11676L16.196 0.11676L16.1735 0.616272ZM17.8338 2.64642L17.8338 3.14642L18.3338 3.14642L18.3338 2.64642L17.8338 2.64642ZM17.8338 2.64594L17.8338 2.14594L17.3338 2.14594L17.3338 2.64594L17.8338 2.64594ZM9.8537 1.04346C10.076 1.04309 10.3154 1.04321 10.5743 1.04333L10.5748 0.043335C10.3161 0.0432129 10.0757 0.0430908 9.85214 0.043457L9.8537 1.04346ZM9.35291 0.540283L9.35291 0.543457L10.3529 0.543457L10.3529 0.540283L9.35291 0.540283ZM5.8512 1.11102C7.02264 1.05865 7.47263 1.04291 9.85345 1.04028L9.85236 0.0402832C7.46198 0.0429077 6.99673 0.0588379 5.80655 0.112L5.8512 1.11102ZM3.63208 1.51471C4.03326 1.35986 4.65775 1.16528 5.85159 1.11102L5.80618 0.112061C4.50397 0.171265 3.77325 0.388306 3.272 0.581787L3.63208 1.51471ZM2.33173 2.35144C2.72974 1.95758 3.09756 1.72058 3.63177 1.51483L3.27234 0.581665C2.61185 0.83606 2.12634 1.14783 1.62836 1.64056L2.33173 2.35144ZM1.48758 3.63525C1.69427 3.1087 1.9335 2.74542 2.33173 2.35144L1.62836 1.64056C1.13055 2.13318 0.814056 2.61426 0.556732 3.26984L1.48758 3.63525ZM1.08081 5.82715C1.13531 4.64807 1.332 4.03168 1.48761 3.63519L0.556702 3.2699C0.361908 3.7663 0.141541 4.49036 0.0818787 5.78101L1.08081 5.82715ZM1.00775 10.9203C1.00775 7.5401 1.02002 7.15039 1.08081 5.82703L0.0818787 5.78113C0.019989 7.12805 0.00775146 7.53625 0.00775146 10.9203L1.00775 10.9203ZM1.08081 16.0158C1.02002 14.6924 1.00775 14.3007 1.00775 10.9203L0.00775146 10.9203C0.00775146 14.3045 0.019989 14.7148 0.0818787 16.0617L1.08081 16.0158ZM1.48752 18.207C1.33197 17.811 1.13504 17.1948 1.08081 16.0158L0.0818787 16.0618C0.141266 17.3525 0.361938 18.0767 0.556793 18.5726L1.48752 18.207ZM2.33173 19.4901C1.93347 19.0961 1.6947 18.7338 1.48746 18.2068L0.556854 18.5728C0.814697 19.2285 1.13058 19.7084 1.62836 20.2009L2.33173 19.4901ZM3.63141 20.326C3.09747 20.1208 2.72974 19.8839 2.33173 19.4901L1.62836 20.2009C2.12634 20.6937 2.61197 21.0056 3.27267 21.2595L3.63141 20.326ZM5.85168 20.73C4.65814 20.6755 4.03357 20.4805 3.63129 20.326L3.27283 21.2595C3.77347 21.4518 4.50357 21.6695 5.80606 21.7289L5.85168 20.73ZM11.0012 20.8033C7.58551 20.8033 7.18933 20.7902 5.85135 20.73L5.8064 21.7289C7.16711 21.7902 7.58109 21.8033 11.0012 21.8033L11.0012 20.8033ZM16.1511 20.73C14.813 20.7902 14.4166 20.8033 11.0012 20.8033L11.0012 21.8033C14.4211 21.8033 14.8353 21.7902 16.196 21.7289L16.1511 20.73ZM18.3698 20.3267C17.9694 20.4814 17.3448 20.676 16.1509 20.73L16.1961 21.7289C17.4983 21.67 18.2294 21.453 18.7303 21.2595L18.3698 20.3267ZM19.6693 19.4904C19.271 19.8845 18.9045 20.1213 18.3708 20.3263L18.7294 21.2598C19.3908 21.0057 19.875 20.6937 20.3727 20.2012L19.6693 19.4904ZM20.5135 18.2081C20.3069 18.7343 20.0679 19.0963 19.6695 19.4902L20.3726 20.2013C20.8702 19.7092 21.1868 19.2295 21.4443 18.5735L20.5135 18.2081ZM20.9202 16.0167C20.8658 17.1959 20.669 17.8122 20.5135 18.208L21.4443 18.5737C21.6392 18.0776 21.8595 17.3535 21.9192 16.0629L20.9202 16.0167ZM20.9944 10.9235C20.9944 14.3013 20.981 14.6934 20.9202 16.0169L21.9192 16.0627C21.981 14.716 21.9944 14.3059 21.9944 10.9235L20.9944 10.9235ZM20.9202 5.8302C20.981 7.15375 20.9944 7.54572 20.9944 10.9235L21.9944 10.9235C21.9944 7.5412 21.981 7.13104 21.9192 5.7843L20.9202 5.8302ZM20.5135 3.6391C20.6691 4.03497 20.866 4.65125 20.9202 5.8302L21.9192 5.78424C21.8598 4.49353 21.6391 3.76935 21.4443 3.27338L20.5135 3.6391ZM19.6693 2.3551C20.0674 2.74896 20.3063 3.11224 20.5136 3.63928L21.4442 3.27319C21.1865 2.6181 20.8707 2.13702 20.3727 1.64429L19.6693 2.3551ZM18.3707 1.51917C18.9044 1.72424 19.2714 1.96106 19.6693 2.35504L20.3728 1.64441C19.8752 1.15173 19.3904 0.839722 18.7294 0.585693L18.3707 1.51917ZM16.1509 1.11578C17.3444 1.16974 17.9688 1.36475 18.3708 1.51917L18.7294 0.585693C18.2289 0.393433 17.4987 0.17572 16.1961 0.11676L16.1509 1.11578ZM11.0012 1.04346C14.4169 1.04346 14.813 1.0556 16.1511 1.11578L16.196 0.11676C14.8348 0.055603 14.4207 0.043457 11.0012 0.043457L11.0012 1.04346ZM10.5743 1.04333C10.7112 1.0434 10.8534 1.04346 11.0012 1.04346L11.0012 0.043457C10.8536 0.043457 10.7116 0.043396 10.5748 0.043335L10.5743 1.04333ZM17.8338 2.14642C16.7149 2.14642 15.7978 3.04498 15.7978 4.16577L16.7978 4.16577C16.7978 3.60779 17.2567 3.14642 17.8338 3.14642L17.8338 2.14642ZM17.3338 2.64594L17.3338 2.64642L18.3338 2.64642L18.3338 2.64594L17.3338 2.64594ZM19.8698 4.16577C19.8698 3.04553 18.9529 2.14594 17.8338 2.14594L17.8338 3.14594C18.4107 3.14594 18.8698 3.60779 18.8698 4.16577L19.8698 4.16577ZM17.8338 6.18561C18.9529 6.18561 19.8698 5.28595 19.8698 4.16577L18.8698 4.16577C18.8698 4.72369 18.4107 5.18561 17.8338 5.18561L17.8338 6.18561ZM15.7978 4.16577C15.7978 5.28595 16.7147 6.18561 17.8338 6.18561L17.8338 5.18561C17.2569 5.18561 16.7978 4.72369 16.7978 4.16577L15.7978 4.16577Z" fill="" fill-opacity="1.000000" fill-rule="nonzero"/>
	</mask>
	<path id="Combined-Shape" d="M9.85291 1.04346L9.35291 1.04346L9.35291 0.543457L9.85291 0.543457L9.85291 1.04425L9.35291 1.04425L9.35214 0.54425L9.85291 0.543457L9.8537 1.04346L9.3537 1.04425L9.35291 0.54425L9.85291 0.543457L9.85291 1.04346ZM10.3521 0.043457L10.3545 1.54266L8.85291 1.54498L8.85291 0.043457L9.85291 0.043457L10.3521 0.043457ZM10.0746 0.543091L10.0748 0.0430908L11.0748 0.0435181L11.0746 0.543518L10.0746 0.543091ZM11.0746 0.543518L10.5746 0.543335L10.0746 0.543091L10.0748 0.0430908L10.5748 0.043335L11.0748 0.0435181L11.0746 0.543518ZM9.85291 0.0402832L10.3529 0.0402832L10.3529 0.540283L9.85291 0.540283L9.85291 0.0397339L10.3529 0.0397339L10.3535 0.539734L9.85291 0.540283L9.85236 0.0402832L10.3524 0.0397339L10.3529 0.539734L9.85291 0.540283L9.85291 0.0402832ZM9.35345 1.04028L9.35181 -0.459167L10.8529 -0.460815L10.8529 1.04028L9.85291 1.04028L9.35345 1.04028ZM5.32938 0.63385L5.30704 0.134338L5.80655 0.112L5.82925 0.611511L5.82889 0.611511L5.80618 0.112061L6.30566 0.0893555L6.32837 0.588806L5.32938 0.63385ZM6.32837 0.589172L5.82889 0.611511L5.32938 0.634216L5.28397 -0.364746L6.28372 -0.410217L6.32837 0.589172ZM3.91864 0.868469L4.09836 1.33508L3.63177 1.51483L3.45169 1.04834L3.45203 1.04822L3.63208 1.51471L3.16562 1.6947L2.9856 1.22827L3.91864 0.868469ZM2.98547 1.22797L3.45206 1.04822L3.91852 0.868164L4.27856 1.80109L3.34503 2.16144L2.98547 1.22797ZM1.6246 2.34772L1.27295 1.99225L1.98376 1.28894L2.33545 1.64435L1.6246 2.34772ZM2.33545 1.64435L1.98004 1.99603L1.6246 2.34772L1.27295 1.99225L1.62836 1.64056L1.98376 1.28894L2.33545 1.64435ZM0.839478 3.91797L0.374023 3.73529L0.73941 2.80438L1.20483 2.98712L0.839478 3.91797ZM1.20483 2.98712L1.02216 3.45251L0.839478 3.91797L0.374023 3.73529L0.556732 3.26984L0.73941 2.80438L1.20483 2.98712ZM0.558258 6.30353L0.0588074 6.28046L0.0818787 5.78101L0.58136 5.80396L0.58136 5.80408L0.0818787 5.78113L0.104828 5.28168L0.604309 5.30463L0.558258 6.30353ZM0.604431 5.30463L0.58136 5.80408L0.558411 6.30353L-0.440552 6.25763L-0.394623 5.25842L0.604431 5.30463ZM0.604309 16.5383L0.104828 16.5612L0.0589294 15.5623L0.558411 15.5393L0.604309 16.5383ZM0.558411 15.5393L0.58136 16.0388L0.604309 16.5383L0.104828 16.5612L0.0818787 16.0617L0.0589294 15.5623L0.558411 15.5393ZM1.20499 18.8552L0.739624 19.038L0.556793 18.5726L1.022 18.3894L1.02206 18.3895L0.556854 18.5728L0.373871 18.1075L0.839172 17.9245L1.20499 18.8552ZM0.839325 17.9244L1.02216 18.3898L1.20514 18.8551L0.27475 19.2209L-0.0917969 18.2902L0.839325 17.9244ZM2.33545 20.1972L1.98376 20.5526L1.27295 19.8492L1.6246 19.4938L2.33545 20.1972ZM1.6246 19.4938L1.98004 19.8455L2.33545 20.1972L1.98376 20.5526L1.62836 20.2009L1.27295 19.8492L1.6246 19.4938ZM3.91876 20.9722L3.73941 21.4388L3.27267 21.2595L3.45517 20.794L3.45529 20.7941L3.27283 21.2595L2.80603 21.0803L2.98529 20.6135L3.91876 20.9722ZM2.98532 20.6134L3.45206 20.7928L3.91882 20.972L3.55911 21.9088L2.62781 21.5438L2.98532 20.6134ZM6.32834 21.2523L6.30554 21.7518L5.80606 21.7289L5.82819 21.2294L5.82852 21.2294L5.8064 21.7289L5.30692 21.7065L5.32938 21.207L6.32834 21.2523ZM5.32941 21.2067L5.82889 21.2295L6.32837 21.252L6.28345 22.2505L5.28375 22.2063L5.32941 21.2067ZM16.673 21.207L16.6955 21.7065L16.196 21.7289L16.1747 21.2294L16.1749 21.2294L16.1961 21.7289L15.6966 21.7516L15.674 21.2521L16.673 21.207ZM15.674 21.252L16.1735 21.2295L16.673 21.2068L16.7183 22.2072L15.7189 22.2497L15.674 21.252ZM18.0833 20.9724L17.904 20.5056L18.3708 20.3263L18.551 20.7927L18.5501 20.793L18.3698 20.3267L18.8362 20.1464L19.0165 20.6128L18.0833 20.9724ZM19.0168 20.6138L18.5501 20.793L18.0837 20.9733L17.7232 20.0405L18.6579 19.6793L19.0168 20.6138ZM19.6655 20.1973L19.3139 19.8418L19.6695 19.4902L20.0198 19.847L20.0197 19.8471L19.6693 19.4904L20.0247 19.1387L20.3764 19.4941L19.6655 20.1973ZM20.3766 19.4942L20.021 19.8458L19.6656 20.1974L18.9609 19.4853L19.6746 18.7844L20.3766 19.4942ZM20.7961 18.8562L20.3307 18.6733L20.5135 18.208L20.979 18.3906L20.9789 18.3908L20.5135 18.2081L20.6962 17.7427L21.1616 17.9254L20.7961 18.8562ZM21.1617 17.9255L20.9789 18.3909L20.7962 18.8563L19.8654 18.4909L20.2308 17.5597L21.1617 17.9255ZM21.4428 15.5403L21.9423 15.5634L21.9192 16.0629L21.4196 16.0419L21.4196 16.0418L21.9192 16.0627L21.8962 16.5623L21.3968 16.5393L21.4428 15.5403ZM21.3966 16.5393L21.4197 16.0398L21.4427 15.5403L22.4396 15.5862L22.3977 16.5856L21.3966 16.5393ZM21.3968 5.30774L21.8962 5.28485L21.9421 6.28375L21.4427 6.3067L21.3968 5.30774ZM21.4427 6.3067L21.4197 5.80725L21.3968 5.30774L21.8962 5.28485L21.9192 5.7843L21.9421 6.28375L21.4427 6.3067ZM20.7961 2.99084L21.2614 2.80804L21.4443 3.27338L20.9791 3.45673L20.979 3.45654L21.4442 3.27319L21.6272 3.73846L21.162 3.92151L20.7961 2.99084ZM21.1617 3.92157L20.9789 3.45624L20.7958 2.99097L21.7261 2.62494L22.093 3.55573L21.1617 3.92157ZM20.3763 2.3515L20.0246 2.70679L19.6693 2.35504L20.0206 1.99927L20.0207 1.99939L19.6693 2.3551L19.3139 2.00342L19.6656 1.64801L20.3763 2.3515ZM19.6657 1.64795L20.021 1.99969L20.3764 2.35138L19.6734 3.06189L18.9617 2.35895L19.6657 1.64795ZM18.0833 0.873047L18.2627 0.406372L19.1962 0.765076L19.0168 1.23181L18.0833 0.873047ZM19.0168 1.23181L18.5501 1.05243L18.0833 0.873047L18.2627 0.406372L18.7294 0.585693L19.1962 0.765076L19.0168 1.23181ZM15.674 0.593689L15.6966 0.0941772L16.1961 0.11676L16.1735 0.616272L16.1734 0.616272L16.196 0.11676L16.6955 0.139221L16.673 0.638733L15.674 0.593689ZM16.673 0.638855L16.1735 0.616272L15.674 0.593811L15.719 -0.405334L16.7182 -0.360107L16.673 0.638855ZM18.3338 2.64642L18.3338 3.14642L17.8338 3.14642L17.8338 2.64642L18.3338 2.64642L18.3338 3.14642L17.8338 3.14642L17.8338 2.64642L18.3338 2.64642L18.3338 3.14642L17.8338 3.14642L17.8338 2.64642L18.3338 2.64642ZM17.3338 2.14642L18.8338 2.14642L18.8338 3.64642L17.3338 3.64642L17.3338 2.64642L17.3338 2.14642ZM17.3338 2.64594L17.3338 2.14594L17.8338 2.14594L17.8338 2.64594L17.3338 2.64594L17.3338 2.14594L17.8338 2.14594L17.8338 2.64594L17.3338 2.64594L17.3338 2.14594L17.8338 2.14594L17.8338 2.64594L17.3338 2.64594ZM18.3338 3.14594L16.8338 3.14594L16.8338 1.64594L18.3338 1.64594L18.3338 2.64594L18.3338 3.14594ZM9.85361 0.543457L10.5743 0.543335L10.5743 1.04333L10.0743 1.04309L10.0748 0.0430908L10.5748 0.043335L10.5749 0.543335L9.85223 0.543457L9.85214 0.043457L10.3521 0.0426636L10.3537 1.04266L9.8537 1.04346L9.85361 0.543457ZM9.35446 1.54352L9.35138 -0.456482L11.075 -0.456787L11.0741 1.54321L9.85379 1.54346L9.35446 1.54352ZM9.85291 0.540283L9.85291 0.543457L9.35291 0.543457L9.35291 0.043457L10.3529 0.043457L10.3529 0.543457L9.85291 0.543457L9.85291 0.540283L10.3529 0.540283L10.3529 1.04028L9.35291 1.04028L9.35291 0.540283L9.85291 0.540283ZM8.85291 0.0402832L10.8529 0.0402832L10.8529 1.04346L8.85291 1.04346L8.85291 0.540283L8.85291 0.0402832ZM5.82889 0.611511Q7.3613 0.54303 9.85291 0.540283L9.85345 1.04028L9.35345 1.04083L9.35236 0.0408325L9.85236 0.0402832L9.85291 0.540283Q7.3613 0.54303 5.82889 0.611511L5.80655 0.112L6.30606 0.0897217L6.35071 1.08868L5.8512 1.11102L5.82889 0.611511ZM5.37402 1.63287L5.28473 -0.365173L5.78424 -0.387451Q7.33841 -0.456909 9.85181 -0.459717L10.3518 -0.460266L10.354 1.53973L9.85403 1.54028Q7.38419 1.54303 5.87354 1.61053L5.37402 1.63287ZM3.45206 1.04822Q4.41724 0.67572 5.82889 0.611511L5.85159 1.11102L5.35208 1.13373L5.30667 0.134766L5.80618 0.112061L5.82889 0.611511Q4.41724 0.67572 3.45206 1.04822L3.272 0.581787L3.73846 0.401733L4.09854 1.33466L3.63208 1.51471L3.45206 1.04822ZM3.34567 2.16119L2.62552 0.295349L3.09198 0.115295Q4.20911 -0.315857 5.78348 -0.387451L6.28296 -0.410156L6.37378 1.58777L5.8743 1.61047Q4.62534 1.66724 3.81213 1.98114L3.34567 2.16119ZM1.98004 1.99603Q2.6102 1.3725 3.45206 1.04822L3.63177 1.51483L3.16519 1.69452L2.80576 0.761353L3.27234 0.581665L3.45206 1.04822Q2.6102 1.3725 1.98004 1.99603L1.62836 1.64056L1.98376 1.28894L2.68713 1.99976L2.33173 2.35144L1.98004 1.99603ZM2.32797 3.05853L0.921265 1.63684L1.27667 1.28516Q2.05554 0.514526 3.09259 0.115051L3.55917 -0.0646973L4.27808 1.80164L3.81149 1.98138Q3.16483 2.23047 2.68338 2.70685L2.32797 3.05853ZM1.02216 3.45251Q1.34866 2.62073 1.98004 1.99603L2.33173 2.35144L1.97629 2.70312L1.27295 1.99225L1.62836 1.64056L1.98004 1.99603Q1.34866 2.62073 1.02216 3.45251L0.556732 3.26984L0.73941 2.80438L1.67029 3.1698L1.48758 3.63525L1.02216 3.45251ZM1.77032 4.28333L-0.0914001 3.55255L0.0913086 3.08716Q0.495026 2.05859 1.27667 1.28516L1.63211 0.933472L3.03882 2.35516L2.68338 2.70685Q2.20227 3.18292 1.953 3.81793L1.77032 4.28333ZM0.58136 5.80408Q0.645691 4.41187 1.02216 3.45251L1.48761 3.63519L1.30496 4.10065L0.374054 3.73535L0.556702 3.2699L1.02216 3.45251Q0.645691 4.41187 0.58136 5.80408L0.0818787 5.78101L0.10498 5.28156L1.10391 5.3277L1.08081 5.82715L0.58136 5.80408ZM1.55719 6.34973L-0.440674 6.25739L-0.417572 5.75793Q-0.345612 4.2005 0.0912781 3.08722L0.273926 2.62177L2.13571 3.35242L1.95303 3.81781Q1.63699 4.62323 1.58029 5.85022L1.55719 6.34973ZM0.507751 10.9203Q0.507751 7.40625 0.58136 5.80408L1.08081 5.82703L1.05789 6.32648L0.0589294 6.28058L0.0818787 5.78113L0.58136 5.80408Q0.507751 7.40625 0.507751 10.9203L0.00775146 10.9203L0.00775146 10.4203L1.00775 10.4203L1.00775 10.9203L0.507751 10.9203ZM1.50775 11.4203L-0.492249 11.4203L-0.492249 10.9203Q-0.492249 7.3833 -0.417603 5.75818L-0.394653 5.25873L1.60324 5.35046L1.58029 5.84998Q1.50775 7.4292 1.50775 10.9203L1.50775 11.4203ZM0.58136 16.0388Q0.507751 14.4366 0.507751 10.9203L1.00775 10.9203L1.00775 11.4203L0.00775146 11.4203L0.00775146 10.9203L0.507751 10.9203Q0.507751 14.4366 0.58136 16.0388L0.0818787 16.0617L0.0589294 15.5623L1.05789 15.5164L1.08081 16.0158L0.58136 16.0388ZM1.60324 16.4924L-0.394653 16.5841L-0.417603 16.0847Q-0.492249 14.4595 -0.492249 10.9203L-0.492249 10.4203L1.50775 10.4203L1.50775 10.9203Q1.50775 14.4136 1.58029 15.9929L1.60324 16.4924ZM1.02216 18.3898Q0.645386 17.4308 0.58136 16.0388L1.08081 16.0158L1.10379 16.5153L0.104858 16.5612L0.0818787 16.0618L0.58136 16.0388Q0.645386 17.4308 1.02216 18.3898L0.556793 18.5726L0.373932 18.1072L1.30469 17.7416L1.48752 18.207L1.02216 18.3898ZM2.13574 18.4895L0.274261 19.2208L0.0914307 18.7555Q-0.345947 17.6423 -0.417603 16.0847L-0.440552 15.5853L1.55731 15.4933L1.58029 15.9928Q1.63672 17.2194 1.95291 18.0241L2.13574 18.4895ZM1.98004 19.8455Q1.34912 19.2213 1.02216 18.3898L1.48746 18.2068L1.67044 18.6721L0.739838 19.0381L0.556854 18.5728L1.02216 18.3898Q1.34912 19.2213 1.98004 19.8455L1.62836 20.2009L1.27295 19.8492L1.97629 19.1384L2.33173 19.4901L1.98004 19.8455ZM3.03882 19.4863L1.63211 20.908L1.27667 20.5563Q0.495758 19.7836 0.0915222 18.7557L-0.0914612 18.2905L1.76981 17.5585L1.95279 18.0238Q2.20251 18.6589 2.68338 19.1346L3.03882 19.4863ZM3.45206 20.7928Q2.61053 20.4694 1.98004 19.8455L2.33173 19.4901L2.68713 19.8418L1.98376 20.5526L1.62836 20.2009L1.98004 19.8455Q2.61053 20.4694 3.45206 20.7928L3.27267 21.2595L2.80597 21.0801L3.1647 20.1467L3.63141 20.326L3.45206 20.7928ZM4.2775 20.0387L3.56006 21.9056L3.09332 21.7262Q2.05618 21.3276 1.27667 20.5563L0.921265 20.2047L2.32797 18.783L2.68338 19.1346Q3.16492 19.6111 3.81079 19.8593L4.2775 20.0387ZM5.82889 21.2295Q4.422 21.1652 3.45206 20.7928L3.63129 20.326L4.09805 20.5052L3.73959 21.4388L3.27283 21.2595L3.45206 20.7928Q4.422 21.1652 5.82889 21.2295L5.80606 21.7289L5.30658 21.7061L5.3522 20.7072L5.85168 20.73L5.82889 21.2295ZM6.37396 20.2533L6.28275 22.2512L5.78326 22.2285Q4.21466 22.1568 3.0936 21.7263L2.6268 21.5471L3.34375 19.68L3.81052 19.8593Q4.62933 20.1736 5.87448 20.2305L6.37396 20.2533ZM11.0012 21.3033Q7.47159 21.3033 5.82889 21.2295L5.85135 20.73L6.35083 20.7524L6.30591 21.7514L5.8064 21.7289L5.82889 21.2295Q7.47159 21.3033 11.0012 21.3033L11.0012 21.8033L10.5012 21.8033L10.5012 20.8033L11.0012 20.8033L11.0012 21.3033ZM11.5012 20.3033L11.5012 22.3033L11.0012 22.3033Q7.44913 22.3033 5.78394 22.2285L5.28445 22.206L5.3743 20.208L5.87381 20.2305Q7.49405 20.3033 11.0012 20.3033L11.5012 20.3033ZM16.1735 21.2295Q14.5308 21.3033 11.0012 21.3033L11.0012 20.8033L11.5012 20.8033L11.5012 21.8033L11.0012 21.8033L11.0012 21.3033Q14.5308 21.3033 16.1735 21.2295L16.196 21.7289L15.6965 21.7514L15.6516 20.7524L16.1511 20.73L16.1735 21.2295ZM16.6281 20.208L16.718 22.206L16.2184 22.2285Q14.5533 22.3033 11.0012 22.3033L10.5012 22.3033L10.5012 20.3033L11.0012 20.3033Q14.5083 20.3033 16.1286 20.2305L16.6281 20.208ZM18.5501 20.793Q17.5861 21.1655 16.1735 21.2295L16.1509 20.73L16.6504 20.7074L16.6956 21.7064L16.1961 21.7289L16.1735 21.2295Q17.5861 21.1655 18.5501 20.793L18.7303 21.2595L18.2639 21.4396L17.9035 20.5069L18.3698 20.3267L18.5501 20.793ZM18.656 19.6801L19.3769 21.5456L18.9105 21.7258Q17.7943 22.1572 16.2187 22.2285L15.7192 22.251L15.6288 20.2531L16.1283 20.2305Q17.3779 20.174 18.1896 19.8603L18.656 19.6801ZM20.021 19.8458Q19.3896 20.4706 18.5501 20.793L18.3708 20.3263L18.8375 20.147L19.1961 21.0805L18.7294 21.2598L18.5501 20.793Q19.3896 20.4706 20.021 19.8458L20.3727 20.2012L20.0173 20.5529L19.3139 19.842L19.6693 19.4904L20.021 19.8458ZM19.6731 18.7833L21.0798 20.205L20.7244 20.5566Q19.9439 21.3289 18.9087 21.7266L18.4419 21.9058L17.7247 20.0388L18.1915 19.8596Q18.8353 19.6122 19.3177 19.1349L19.6731 18.7833ZM20.9789 18.3909Q20.6532 19.2206 20.021 19.8458L19.6695 19.4902L20.025 19.1387L20.7281 19.8497L20.3726 20.2013L20.021 19.8458Q20.6532 19.2206 20.9789 18.3909L21.4443 18.5735L21.2616 19.0389L20.3308 18.6736L20.5135 18.2081L20.9789 18.3909ZM20.2307 17.5601L22.0924 18.2908L21.9098 18.7562Q21.5067 19.783 20.7242 20.5568L20.3687 20.9084L18.9623 19.4863L19.3179 19.1347Q19.7996 18.6583 20.048 18.0255L20.2307 17.5601ZM21.4197 16.0398Q21.3553 17.4327 20.9789 18.3909L20.5135 18.208L20.6964 17.7426L21.6271 18.1083L21.4443 18.5737L20.9789 18.3909Q21.3553 17.4327 21.4197 16.0399L21.9192 16.0629L21.8961 16.5624L20.8972 16.5162L20.9202 16.0167L21.4197 16.0398ZM20.4438 15.4942L22.4417 15.5865L22.4186 16.086Q22.3466 17.6443 21.9096 18.7565L21.7268 19.2219L19.8653 18.4905L20.0482 18.0251Q20.364 17.2212 20.4208 15.9937L20.4438 15.4942ZM21.4944 10.9235Q21.4944 14.4145 21.4197 16.0398L20.9202 16.0169L20.9432 15.5174L21.9421 15.5633L21.9192 16.0627L21.4197 16.0399Q21.4944 14.4145 21.4944 10.9235L21.9944 10.9235L21.9944 11.4235L20.9944 11.4235L20.9944 10.9235L21.4944 10.9235ZM20.4944 10.4235L22.4944 10.4235L22.4944 10.9235Q22.4944 14.4374 22.4186 16.0857L22.3957 16.5852L20.3978 16.4934L20.4207 15.994Q20.4944 14.3915 20.4944 10.9235L20.4944 10.4235ZM21.4197 5.80725Q21.4944 7.43256 21.4944 10.9235L20.9944 10.9235L20.9944 10.4235L21.9944 10.4235L21.9944 10.9235L21.4944 10.9235Q21.4944 7.43262 21.4197 5.80725L21.9192 5.7843L21.9421 6.28375L20.9432 6.32965L20.9202 5.8302L21.4197 5.80725ZM20.3978 5.35364L22.3957 5.2619L22.4186 5.76135Q22.4944 7.40961 22.4944 10.9235L22.4944 11.4235L20.4944 11.4235L20.4944 10.9235Q20.4944 7.45557 20.4207 5.85315L20.3978 5.35364ZM20.9789 3.45624Q21.3557 4.41522 21.4197 5.80725L20.9202 5.8302L20.8972 5.33075L21.8962 5.28479L21.9192 5.78424L21.4197 5.80725Q21.3557 4.41522 20.9789 3.45624L21.4443 3.27338L21.6271 3.73877L20.6964 4.10443L20.5135 3.6391L20.9789 3.45624ZM19.8653 3.35657L21.7268 2.62518L21.9096 3.09052Q22.347 4.20374 22.4186 5.76129L22.4416 6.26074L20.4437 6.35266L20.4208 5.85321Q20.3643 4.62665 20.0482 3.8219L19.8653 3.35657ZM20.021 1.99969Q20.6512 2.62323 20.9789 3.45624L20.5136 3.63928L20.3306 3.17401L21.2611 2.80786L21.4442 3.27319L20.9789 3.45624Q20.6512 2.62323 20.021 1.99969L20.3727 1.64429L20.7281 1.99597L20.0248 2.70679L19.6693 2.3551L20.021 1.99969ZM18.9622 2.35889L20.369 0.937195L20.7244 1.28888Q21.5045 2.06079 21.9095 3.09009L22.0925 3.55542L20.2314 4.2876L20.0483 3.82233Q19.7979 3.18567 19.3177 2.71057L18.9622 2.35889ZM18.5501 1.05243Q19.3904 1.37543 20.021 1.99969L19.6693 2.35504L19.3139 2.00323L20.0175 1.2926L20.3728 1.64441L20.021 1.99969Q19.3904 1.37543 18.5501 1.05243L18.7294 0.585693L19.1962 0.765076L18.8374 1.69855L18.3707 1.51917L18.5501 1.05243ZM17.7246 1.80652L18.4421 -0.0603638L18.9088 0.119019Q19.945 0.517212 20.7246 1.28906L21.0799 1.64087L19.6728 3.06213L19.3174 2.71033Q18.8359 2.23358 18.1913 1.9859L17.7246 1.80652ZM16.1735 0.616272Q17.5805 0.679932 18.5501 1.05243L18.3708 1.51917L17.904 1.33984L18.2627 0.406372L18.7294 0.585693L18.5501 1.05243Q17.5805 0.679932 16.1735 0.616272L16.1961 0.11676L16.6956 0.139404L16.6504 1.13837L16.1509 1.11578L16.1735 0.616272ZM15.6288 1.59265L15.7192 -0.405273L16.2187 -0.38269Q17.7878 -0.311707 18.9087 0.118958L19.3755 0.298279L18.6582 2.16522L18.1914 1.9859Q17.3733 1.67157 16.1283 1.61523L15.6288 1.59265ZM11.0012 0.543457Q14.554 0.543457 16.1735 0.616272L16.1511 1.11578L15.6516 1.09332L15.6965 0.0942993L16.196 0.11676L16.1735 0.616272Q14.554 0.543457 11.0012 0.543457L11.0012 0.043457L11.5012 0.043457L11.5012 1.04346L11.0012 1.04346L11.0012 0.543457ZM10.5012 1.54346L10.5012 -0.456543L11.0012 -0.456543Q14.5764 -0.456543 16.2184 -0.38269L16.7179 -0.360229L16.6281 1.63776L16.1286 1.6153Q14.5315 1.54346 11.0012 1.54346L10.5012 1.54346ZM10.5745 0.543335L11.0013 0.543457L11.0012 1.04346L10.5012 1.04346L10.5012 0.043457L11.0012 0.043457L11.001 0.543457L10.5746 0.543335L10.5748 0.043335L11.0748 0.0435181L11.0743 1.04352L10.5743 1.04333L10.5745 0.543335ZM10.0741 1.54315L10.075 -0.456848L11.5012 -0.456421L11.5012 1.54358L10.5742 1.54333L10.0741 1.54315ZM17.8338 2.64642Q16.2978 2.64642 16.2978 4.16577L15.7978 4.16577L15.7978 3.66577L16.7978 3.66577L16.7978 4.16577L16.2978 4.16577Q16.2978 3.53705 16.7475 3.09161Q17.197 2.64642 17.8338 2.64642L17.8338 3.14642L17.3338 3.14642L17.3338 2.14642L17.8338 2.14642L17.8338 2.64642ZM18.3338 1.64642L18.3338 3.64642L17.8338 3.64642Q17.2978 3.64642 17.2978 4.16577L17.2978 4.66577L15.2978 4.66577L15.2978 4.16577Q15.2978 1.64642 17.8338 1.64642L18.3338 1.64642ZM17.8338 2.64594L17.8338 2.64642L17.3338 2.64642L17.3338 2.14642L18.3338 2.14642L18.3338 2.64642L17.8338 2.64642L17.8338 2.64594L18.3338 2.64594L18.3338 3.14594L17.3338 3.14594L17.3338 2.64594L17.8338 2.64594ZM16.8338 2.14594L18.8338 2.14594L18.8338 3.14642L16.8338 3.14642L16.8338 2.64594L16.8338 2.14594ZM19.3698 4.16577Q19.3698 3.53607 18.92 3.09131Q18.4695 2.64594 17.8338 2.64594L17.8338 2.14594L18.3338 2.14594L18.3338 3.14594L17.8338 3.14594L17.8338 2.64594Q18.4705 2.64594 18.9201 3.09143Q19.3698 3.53711 19.3698 4.16577L18.8698 4.16577L18.8698 3.66577L19.8698 3.66577L19.8698 4.16577L19.3698 4.16577ZM20.3698 4.66577L18.3698 4.66577L18.3698 4.16577Q18.3698 3.64594 17.8338 3.64594L17.3338 3.64594L17.3338 1.64594L17.8338 1.64594Q18.8803 1.64594 19.623 2.38019Q20.3698 3.11853 20.3698 4.16577L20.3698 4.66577ZM17.8338 5.68561Q18.4695 5.68561 18.92 5.24017Q19.3698 4.79541 19.3698 4.16577L19.8698 4.16577L19.8698 4.66577L18.8698 4.66577L18.8698 4.16577L19.3698 4.16577Q19.3698 4.79437 18.9201 5.24005Q18.4705 5.68561 17.8338 5.68561L17.8338 5.18561L18.3338 5.18561L18.3338 6.18561L17.8338 6.18561L17.8338 5.68561ZM17.3338 6.68561L17.3338 4.68561L17.8338 4.68561Q18.3698 4.68561 18.3698 4.16577L18.3698 3.66577L20.3698 3.66577L20.3698 4.16577Q20.3698 6.68561 17.8338 6.68561L17.3338 6.68561ZM16.2978 4.16577Q16.2978 5.68561 17.8338 5.68561L17.8338 6.18561L17.3338 6.18561L17.3338 5.18561L17.8338 5.18561L17.8338 5.68561Q16.2978 5.68561 16.2978 4.16577L16.7978 4.16577L16.7978 4.66577L15.7978 4.66577L15.7978 4.16577L16.2978 4.16577ZM15.2978 3.66577L17.2978 3.66577L17.2978 4.16577Q17.2978 4.68561 17.8338 4.68561L18.3338 4.68561L18.3338 6.68561L17.8338 6.68561Q15.2978 6.68561 15.2978 4.16577L15.2978 3.66577Z" fill="#298EDA" fill-opacity="1.000000" fill-rule="nonzero"/>
	<path id="Shape" d="M15.26 10.92C15.26 13.25 13.35 15.14 11 15.14C8.64 15.14 6.73 13.25 6.73 10.92C6.73 8.59 8.64 6.7 11 6.7C13.35 6.7 15.26 8.59 15.26 10.92Z" stroke="#298EDA" stroke-opacity="1.000000" stroke-width="1.000000"/>
</svg>
