<svg width="48.000000" height="47.000000" viewBox="0 0 48 47" fill="none" xmlns="http://www.w3.org/2000/svg" xmlns:xlink="http://www.w3.org/1999/xlink">
	<desc>
			Created with Pixso.
	</desc>
	<defs/>
	<path id="Combined-Shape-path" d="M23.33 19.3L22.49 19.2C19.43 18.81 16.76 17.5 14.5 15.31L13.39 14.22L13.1 15.02C12.5 16.82 12.88 18.71 14.14 19.99C14.82 20.69 14.66 20.79 13.51 20.37C13.1 20.24 12.75 20.14 12.72 20.19C12.6 20.3 13 21.83 13.32 22.43C13.76 23.27 14.65 24.09 15.62 24.58L16.44 24.97L15.47 24.98C14.53 24.98 14.5 25 14.6 25.35C14.93 26.44 16.26 27.6 17.74 28.1L18.78 28.45L17.87 28.99C16.53 29.76 14.95 30.2 13.37 30.23C12.62 30.25 12 30.32 12 30.37C12 30.53 14.04 31.47 15.24 31.84C18.81 32.93 23.06 32.46 26.25 30.6C28.51 29.28 30.78 26.64 31.84 24.09C32.41 22.74 32.98 20.25 32.98 19.06C32.98 18.29 33.03 18.19 33.97 17.27C34.52 16.73 35.04 16.15 35.15 15.98C35.31 15.66 35.3 15.66 34.44 15.94C33.01 16.45 32.81 16.38 33.52 15.63C34.04 15.09 34.66 14.12 34.66 13.83C34.66 13.78 34.41 13.86 34.12 14.02C33.82 14.18 33.15 14.43 32.64 14.59L31.74 14.87L30.91 14.32C30.46 14.02 29.82 13.68 29.49 13.58C28.63 13.34 27.32 13.38 26.55 13.65C24.45 14.4 23.13 16.35 23.28 18.48L23.33 19.3Z" stroke="#298EDA" stroke-opacity="1.000000" stroke-width="1.000000"/>
</svg>
