<svg width="36.000000" height="36.000000" viewBox="0 0 36 36" fill="none" xmlns="http://www.w3.org/2000/svg" xmlns:xlink="http://www.w3.org/1999/xlink">
	<desc>
			Created with Pixso.
	</desc>
	<defs>
		<clipPath id="clip1_145">
			<rect id="video" width="36.000000" height="36.000000" fill="white" fill-opacity="0"/>
		</clipPath>
	</defs>
	<rect id="video" width="36.000000" height="36.000000" fill="#FFFFFF" fill-opacity="0"/>
	<g clip-path="url(#clip1_145)">
		<path id="Vector (Stroke)" d="M35.18 9.16C35.68 9.42 36 9.93 36 10.5L36 25.5C36 26.06 35.68 26.57 35.18 26.83C34.68 27.09 34.08 27.04 33.62 26.72L23.12 19.22C22.73 18.93 22.5 18.48 22.5 18C22.5 17.51 22.73 17.06 23.12 16.77L33.62 9.27C34.08 8.95 34.68 8.9 35.18 9.16ZM26.58 18L33 22.58L33 13.41L26.58 18Z" fill="#4AD428" fill-opacity="1.000000" fill-rule="evenodd"/>
		<path id="Vector (Stroke)" d="M4.5 9C3.67 9 3 9.67 3 10.5L3 25.5C3 26.32 3.67 27 4.5 27L21 27C21.82 27 22.5 26.32 22.5 25.5L22.5 10.5C22.5 9.67 21.82 9 21 9L4.5 9ZM0 10.5C0 8.01 2.01 6 4.5 6L21 6C23.48 6 25.5 8.01 25.5 10.5L25.5 25.5C25.5 27.98 23.48 30 21 30L4.5 30C2.01 30 0 27.98 0 25.5L0 10.5Z" fill="#4AD428" fill-opacity="1.000000" fill-rule="evenodd"/>
	</g>
</svg>
