<svg width="33.000000" height="33.000000" viewBox="0 0 33 33" fill="none" xmlns="http://www.w3.org/2000/svg" xmlns:xlink="http://www.w3.org/1999/xlink">
	<desc>
			Created with Pixso.
	</desc>
	<defs/>
	<path id="Vector" d="M-0.5 16C-0.5 6.88 6.88 -0.5 16 -0.5C25.11 -0.5 32.5 6.88 32.5 16C32.5 25.11 25.11 32.5 16 32.5C6.88 32.5 -0.5 25.11 -0.5 16ZM19.41 29.06C24.74 27.67 28.79 23.1 29.41 17.5L23.42 17.5C23.08 21.64 21.7 25.62 19.41 29.06ZM23.42 14.5L29.41 14.5C28.79 8.89 24.74 4.32 19.41 2.93C21.7 6.37 23.08 10.35 23.42 14.5ZM12.58 2.93C7.25 4.32 3.2 8.89 2.58 14.5L8.57 14.5C8.91 10.35 10.29 6.37 12.58 2.93ZM11.58 14.5C11.96 10.43 13.49 6.55 16 3.32C18.5 6.55 20.03 10.43 20.41 14.5L11.58 14.5ZM11.58 17.5L20.41 17.5C20.03 21.56 18.5 25.44 16 28.67C13.49 25.44 11.96 21.56 11.58 17.5ZM8.57 17.5C8.91 21.64 10.29 25.62 12.58 29.06C7.25 27.67 3.2 23.1 2.58 17.5L8.57 17.5Z" fill="#4AD428" fill-opacity="1.000000" fill-rule="evenodd"/>
</svg>
