<svg width="48.000000" height="47.000000" viewBox="0 0 48 47" fill="none" xmlns="http://www.w3.org/2000/svg" xmlns:xlink="http://www.w3.org/1999/xlink">
	<desc>
			Created with Pixso.
	</desc>
	<defs/>
	<path id="Combined-Shape-path" d="M25.95 30.42C26.17 30.19 26.16 29.76 26.16 29.76C26.16 29.76 26.13 27.77 27.08 27.48C28.02 27.19 29.23 29.4 30.51 30.26C31.47 30.9 32.21 30.76 32.21 30.76L35.63 30.71C35.63 30.71 37.41 30.61 36.57 29.24C36.5 29.13 36.07 28.23 34.03 26.39C31.88 24.45 32.17 24.77 34.75 21.42C36.32 19.39 36.95 18.14 36.75 17.61C36.57 17.1 35.41 17.24 35.41 17.24L31.56 17.26C31.56 17.26 31.28 17.22 31.07 17.35C30.86 17.47 30.72 17.75 30.72 17.75C30.72 17.75 30.12 19.32 29.3 20.66C27.59 23.49 26.9 23.64 26.62 23.46C25.97 23.05 26.13 21.82 26.13 20.94C26.13 18.2 26.56 17.06 25.3 16.77C24.88 16.67 24.58 16.6 23.51 16.59C22.13 16.58 20.97 16.6 20.31 16.91C19.87 17.12 19.53 17.58 19.74 17.61C20 17.64 20.57 17.76 20.88 18.16C21.27 18.68 21.26 19.85 21.26 19.85C21.26 19.85 21.48 23.08 20.73 23.48C20.21 23.75 19.5 23.19 17.97 20.63C17.19 19.32 16.6 17.86 16.6 17.86C16.6 17.86 16.48 17.59 16.28 17.45C16.03 17.27 15.69 17.22 15.69 17.22L12.03 17.24C12.03 17.24 11.48 17.25 11.28 17.49C11.1 17.69 11.26 18.12 11.26 18.12C11.26 18.12 14.13 24.63 17.37 27.91C20.34 30.91 23.72 30.71 23.72 30.71L25.25 30.71C25.25 30.71 25.71 30.66 25.95 30.42Z" stroke="#298EDA" stroke-opacity="1.000000" stroke-width="1.000000"/>
</svg>
